HIERARCHY
ROOT Hips
{
  OFFSET -2.51758 106.802 -17.7858
  CHANNELS 6 Xposition Yposition Zposition Zrotation Xrotation Yrotation
  JOINT ToSpine
  {
    OFFSET -2.69724 7.43032 -0.144315
    CHANNELS 3 Zrotation Xrotation Yrotation
    JOINT Spine
    {
      OFFSET -0.0310711 10.7595 1.96963
      CHANNELS 3 Zrotation Xrotation Yrotation
      JOINT Spine1
      {
        OFFSET 19.9056 3.91189 0.764692
        CHANNELS 3 Zrotation Xrotation Yrotation
        JOINT Neck
        {
          OFFSET 25.9749 7.03908 -0.130764
          CHANNELS 3 Zrotation Xrotation Yrotation
          JOINT Head
          {
            OFFSET 9.52751 0.295786 -0.907742
            CHANNELS 3 Zrotation Xrotation Yrotation
            End Site
            {
              OFFSET 16.4037 0.713936 2.7358
            }
          }
        }
        JOINT LeftShoulder
        {
          OFFSET 17.7449 4.33886 11.7777
          CHANNELS 3 Zrotation Xrotation Yrotation
          JOINT LeftArm
          {
            OFFSET 0.911315 1.27913 9.80584
            CHANNELS 3 Zrotation Xrotation Yrotation
            JOINT LeftForeArm
            {
              OFFSET 28.6126 1.18197 -3.53199
              CHANNELS 3 Zrotation Xrotation Yrotation
              JOINT LeftHand
              {
                OFFSET 27.5088 0.0218783 0.327423
                CHANNELS 3 Zrotation Xrotation Yrotation
                End Site
                {
                  OFFSET 18.6038 -0.000155887 0.382096
                }
              }
            }
          }
        }
        JOINT RightShoulder
        {
          OFFSET 17.1009 2.89543 -12.2328
          CHANNELS 3 Zrotation Xrotation Yrotation
          JOINT RightArm
          {
            OFFSET 1.4228 0.178766 -10.211
            CHANNELS 3 Zrotation Xrotation Yrotation
            JOINT RightForeArm
            {
              OFFSET 28.733 1.87905 2.64907
              CHANNELS 3 Zrotation Xrotation Yrotation
              JOINT RightHand
              {
                OFFSET 27.4588 0.290562 -0.101845
                CHANNELS 3 Zrotation Xrotation Yrotation
                End Site
                {
                  OFFSET 17.8396 -0.255518 -0.000602873
                }
              }
            }
          }
        }
      }
    }
  }
  JOINT LeftUpLeg
  {
    OFFSET -5.61296 -2.22332 -10.2353
    CHANNELS 3 Zrotation Xrotation Yrotation
    JOINT LeftLeg
    {
      OFFSET 2.56703 -44.7417 -7.93097
      CHANNELS 3 Zrotation Xrotation Yrotation
      JOINT LeftFoot
      {
        OFFSET 3.16933 -46.5642 -3.96578
        CHANNELS 3 Zrotation Xrotation Yrotation
        JOINT LeftToeBase
        {
          OFFSET 0.346054 -6.02161 12.8035
          CHANNELS 3 Zrotation Xrotation Yrotation
          End Site
          {
            OFFSET 0.134235 -1.35082 5.13018
          }
        }
      }
    }
  }
  JOINT RightUpLeg
  {
    OFFSET -5.7928 -1.72406 10.6446
    CHANNELS 3 Zrotation Xrotation Yrotation
    JOINT RightLeg
    {
      OFFSET -2.57161 -44.7178 -7.85259
      CHANNELS 3 Zrotation Xrotation Yrotation
      JOINT RightFoot
      {
        OFFSET -3.10148 -46.5936 -4.03391
        CHANNELS 3 Zrotation Xrotation Yrotation
        JOINT RightToeBase
        {
          OFFSET -0.0828122 -6.13587 12.8035
          CHANNELS 3 Zrotation Xrotation Yrotation
          End Site
          {
            OFFSET -0.131328 -1.35082 5.13018
          }
        }
      }
    }
  }
}
MOTION
Frames:	6
Frame Time:	0.0333333
-3.23161 106.694 -16.1983 17.7568 -74.1507 -71.9159 -70.1915 0 88.8779 90.663 72.5922 -2.23708 -13.2866 21.8925 4.81725 -124.015 21.292 167.771 -170.22 62.9127 -170.758 -0.429209 9.14547 -0.842292 -131.428 21.1486 170.448 -2.90065 -32.1656 -8.44947 6.99804 -0.698735 -9.30423 -7.20041 -25.9908 -21.2573 -132.556 -31.1892 172.926 -12.4281 36.8568 16.9665 7.44256 0.70784 11.4764 -60.6827 -0.160624 95.9821 2.82523 15.491 -3.72921 3.76137 -2.46475 -0.663144 0.0562965 0.497997 1.29874 -63.8946 3.02064 81.4257 -1.24494 16.2661 -3.52931 -5.64912 -4.05567 0.945198 -0.181365 -1.67005 -1.05412 
-3.20955 106.694 -16.3345 18.2502 -74.1789 -71.3906 -70.1915 0 88.8779 90.7442 72.5063 -2.46378 -13.0149 21.7503 4.89403 -124.453 21.4886 168.027 -170.217 63.0073 -170.972 -0.411527 9.20351 -0.972996 -130.849 21.5852 170.136 -2.92617 -31.6827 -8.42173 6.95132 -0.693562 -9.28988 -7.09319 -25.8675 -20.9678 -132.052 -30.4852 173.229 -12.6359 36.799 17.0907 7.01558 0.655339 11.3384 -60.6248 -0.214537 95.9106 2.89595 15.5483 -3.79635 3.75087 -2.40692 -0.659816 0.0617779 0.508475 1.28471 -63.8674 3.00965 81.4149 -1.22872 16.321 -3.64612 -5.6459 -4.01816 0.944063 -0.181385 -1.67153 -1.05622 
-3.19319 106.696 -16.4661 18.6816 -74.2074 -70.9479 -70.1915 0 88.8779 90.6136 72.4469 -2.5385 -12.7018 21.655 4.92828 -124.78 21.6166 167.782 -169.599 63.1622 -171.596 -0.490388 9.05586 -0.435651 -129.739 23.4111 169.706 -1.85936 -30.3923 -7.51227 5.99423 -0.592988 -9.15347 -6.99245 -25.5916 -20.8927 -131.431 -29.8635 173.082 -12.8678 36.616 17.4465 7.26068 0.656169 10.9231 -60.5792 -0.251831 95.8727 2.91608 15.5865 -3.86326 3.76142 -2.34264 -0.658333 0.0672619 0.518952 1.27069 -63.8253 3.01735 81.4397 -1.26893 16.3917 -3.76526 -5.61731 -3.98713 0.940878 -0.181406 -1.673 -1.05832 
-3.16155 106.699 -16.5953 19.0095 -74.2129 -70.5846 -70.1915 0 88.8779 90.1551 72.4393 -2.2141 -12.3558 21.6135 4.96649 -125.106 21.7549 167.551 -169.177 63.326 -172.062 -0.499664 8.62738 -0.17502 -128.961 23.704 169.51 -1.67483 -30.4122 -6.79827 5.46017 -0.55087 -9.32691 -6.88631 -25.3254 -20.7808 -130.657 -29.7742 172.946 -13.2532 37.1528 17.8229 6.65653 0.620627 11.3697 -60.463 -0.245623 95.8615 2.90629 15.7104 -3.93891 3.79742 -2.32179 -0.661122 0.0727488 0.529429 1.25666 -63.793 3.03135 81.4459 -1.28531 16.3836 -3.85203 -5.597 -3.91425 0.937436 -0.181427 -1.67448 -1.06042 
-3.11844 106.701 -16.7243 19.2762 -74.2348 -70.2775 -70.1915 0 88.8779 89.2626 72.3842 -1.27802 -11.6843 21.6696 4.61712 -125.562 21.863 167.038 -168.095 63.4988 -173.095 -0.5331 8.3643 0.162629 -127.84 24.4214 168.988 -1.42995 -30.4499 -6.10523 5.00593 -0.521462 -9.63336 -6.66718 -25.138 -20.0833 -129.79 -29.7911 173.379 -13.2707 36.9855 17.6965 6.42043 0.577426 10.9904 -60.3633 -0.311852 95.7593 3.00193 15.8255 -3.92008 3.78359 -2.30471 -0.659062 0.0782385 0.539904 1.24263 -63.7702 3.11964 81.5498 -1.40271 16.3648 -3.99807 -5.51856 -3.83164 0.928618 -0.181448 -1.67596 -1.06252 
-3.08301 106.704 -16.8552 19.6807 -74.2931 -69.8548 -70.1915 0 88.8779 88.8517 72.2498 -1.11575 -11.336 21.5023 4.63167 -125.88 21.8805 166.699 -167.271 63.5539 -173.491 -0.542939 8.07805 0.37359 -126.606 24.8103 168.49 -1.44313 -31.113 -5.37914 4.53401 -0.478335 -9.72573 -6.29598 -24.3978 -19.3888 -128.785 -29.458 173.278 -13.8492 37.7196 18.308 5.45176 0.473952 10.8439 -60.3567 -0.392414 95.6738 3.08329 15.8492 -3.93103 3.7722 -2.24132 -0.655425 0.0837309 0.550379 1.2286 -63.7867 3.07013 81.4926 -1.36381 16.3873 -4.02503 -5.52353 -3.77671 0.927773 -0.181468 -1.67744 -1.06462 
